Normalized EMG Linear Envelopes
nRows=114
nColumns=4

endheader
time	 med_gas_r	  soleus_r	 tib_ant_r	
2.71976	  0.003237	  0.005802	  0.001711	
2.79133	  0.003309	  0.005795	  0.001726	
2.8629	  0.003261	  0.005801	  0.001698	
2.93448	  0.003139	  0.005765	  0.001633	
3.00605	  0.003051	  0.005712	  0.001571	
3.07762	  0.002981	  0.005797	  0.001560	
3.14919	  0.002978	  0.005937	  0.001611	
3.22077	  0.003014	  0.005935	  0.001665	
3.29234	  0.003020	  0.005775	  0.001686	
3.36391	  0.003080	  0.005719	  0.001680	
3.43548	  0.003135	  0.005763	  0.001666	
3.50706	  0.003117	  0.005795	  0.001673	
3.57863	  0.003141	  0.005819	  0.001689	
3.6502	  0.003157	  0.005886	  0.001663	
3.72177	  0.003090	  0.005946	  0.001599	
3.79335	  0.003015	  0.005830	  0.001593	
3.86492	  0.002971	  0.005585	  0.001678	
3.93649	  0.002993	  0.005429	  0.001782	
4.00806	  0.003098	  0.005424	  0.001815	
4.07964	  0.003260	  0.005600	  0.001780	
4.15121	  0.003474	  0.005860	  0.001720	
4.22278	  0.003708	  0.006177	  0.001692	
4.29435	  0.003902	  0.006476	  0.001705	
4.36593	  0.003716	  0.006278	  0.001687	
4.4375	  0.002228	  0.004675	  0.001517	
4.50907	 -0.001978	  0.000236	  0.001089	
4.58065	 -0.009709	 -0.007940	  0.000398	
4.65222	 -0.018175	 -0.017044	 -0.000192	
4.72379	 -0.016449	 -0.015610	  0.000399	
4.79536	  0.018590	  0.020894	  0.004229	
4.86694	  0.118889	  0.126667	  0.013820	
4.93851	  0.300011	  0.318822	  0.029523	
5.01008	  0.500962	  0.532773	  0.044456	
5.08165	  0.627048	  0.651418	  0.051068	
5.15323	  0.662058	  0.685423	  0.050070	
5.2248	  0.642432	  0.690837	  0.046040	
5.29637	  0.640336	  0.696785	  0.044129	
5.36794	  0.688387	  0.693069	  0.045954	
5.43952	  0.749518	  0.698690	  0.049547	
5.51109	  0.780339	  0.720204	  0.052699	
5.58266	  0.793717	  0.754414	  0.055045	
5.65423	  0.828112	  0.788710	  0.057417	
5.72581	  0.864907	  0.778639	  0.059801	
5.79738	  0.889753	  0.746030	  0.060820	
5.86895	  0.906399	  0.731627	  0.060511	
5.94052	  0.905816	  0.746830	  0.058854	
6.0121	  0.895227	  0.751215	  0.056102	
6.08367	  0.868955	  0.732589	  0.054819	
6.15524	  0.852973	  0.706052	  0.057305	
6.22681	  0.860701	  0.690481	  0.060843	
6.29839	  0.882881	  0.695525	  0.062733	
6.36996	  0.913236	  0.730202	  0.063180	
6.44153	  0.931312	  0.762129	  0.062330	
6.5131	  0.915994	  0.741360	  0.061404	
6.58468	  0.865417	  0.693538	  0.061936	
6.65625	  0.824837	  0.664120	  0.063672	
6.72782	  0.810878	  0.648349	  0.063015	
6.7994	  0.810654	  0.642189	  0.060466	
6.87097	  0.809924	  0.640770	  0.057438	
6.94254	  0.813513	  0.630873	  0.053750	
7.01411	  0.831524	  0.618761	  0.051065	
7.08569	  0.844813	  0.617825	  0.050229	
7.15726	  0.842543	  0.630813	  0.051500	
7.22883	  0.844968	  0.662072	  0.053137	
7.3004	  0.865321	  0.692794	  0.054644	
7.37198	  0.899232	  0.696145	  0.055297	
7.44355	  0.903809	  0.671787	  0.054783	
7.51512	  0.862378	  0.638262	  0.054690	
7.58669	  0.808530	  0.610110	  0.053548	
7.65827	  0.783534	  0.598716	  0.048923	
7.72984	  0.773550	  0.601329	  0.044953	
7.80141	  0.753077	  0.606406	  0.043239	
7.87298	  0.714646	  0.600733	  0.044750	
7.94456	  0.705814	  0.606883	  0.049117	
8.01613	  0.757331	  0.646632	  0.052412	
8.0877	  0.835437	  0.688030	  0.054303	
8.15927	  0.917228	  0.698993	  0.056380	
8.23085	  0.959937	  0.691714	  0.058050	
8.30242	  0.948399	  0.685605	  0.058968	
8.37399	  0.899270	  0.670169	  0.059148	
8.44556	  0.850291	  0.639969	  0.056788	
8.51714	  0.828995	  0.610709	  0.053759	
8.58871	  0.838718	  0.616039	  0.051677	
8.66028	  0.864473	  0.640174	  0.050437	
8.73185	  0.882176	  0.677161	  0.050683	
8.80343	  0.879319	  0.715835	  0.052687	
8.875	  0.876870	  0.748422	  0.056247	
8.94657	  0.882513	  0.755120	  0.058728	
9.01815	  0.882214	  0.742740	  0.059026	
9.08972	  0.869409	  0.723789	  0.058425	
9.16129	  0.857141	  0.697908	  0.057750	
9.23286	  0.845260	  0.695945	  0.057521	
9.30444	  0.848715	  0.707546	  0.058265	
9.37601	  0.868275	  0.737127	  0.062437	
9.44758	  0.880516	  0.775422	  0.068094	
9.51915	  0.873026	  0.819840	  0.071720	
9.59073	  0.851195	  0.846653	  0.071218	
9.6623	  0.835150	  0.824580	  0.065348	
9.73387	  0.814045	  0.735962	  0.055100	
9.80544	  0.781722	  0.601633	  0.041978	
9.87702	  0.766159	  0.432071	  0.027668	
9.94859	  0.765515	  0.245193	  0.016155	
10.0202	  0.758510	  0.109163	  0.011787	
10.0917	  0.738651	  0.041574	  0.017854	
10.1633	  0.708508	  0.021527	  0.036284	
10.2349	  0.679494	  0.024487	  0.060713	
10.3065	  0.658385	  0.031646	  0.072078	
10.378	  0.665408	  0.035085	  0.058528	
10.4496	  0.697933	  0.035158	  0.033492	
10.5212	  0.741233	  0.033769	  0.014355	
10.5927	  0.775056	  0.032942	  0.004970	
10.6643	  0.786013	  0.032740	  0.002383	
10.7359	  0.780996	  0.032523	  0.002866	
10.8075	  0.789181	  0.031479	  0.004176	
